<svg xmlns="http://www.w3.org/2000/svg" width="512" height="512" viewBox="0 0 512 512" version="1.1">
	<path d="M 84.001 84.499 L 24.508 143.998 64.488 183.988 L 104.468 223.977 64.422 224.238 L 24.377 224.500 33.627 268.500 C 38.715 292.700, 43.787 316.775, 44.899 322 C 51.414 352.624, 56 374.627, 56 375.263 C 56 375.664, 110.870 376.106, 177.933 376.246 L 299.867 376.500 292.609 393 C 285.779 408.528, 285.208 409.471, 282.926 409 C 281.592 408.725, 276.225 408.522, 271 408.549 C 262.919 408.591, 260.646 408.992, 255.780 411.231 C 249.089 414.310, 240.882 421.640, 237.321 427.716 L 234.810 432 204 432 L 173.190 432 170.679 427.716 C 167.140 421.676, 158.938 414.330, 152.218 411.180 C 147.141 408.800, 145.323 408.502, 136 408.520 C 126.755 408.538, 124.817 408.858, 119.780 411.202 C 113.098 414.311, 104.872 421.655, 101.360 427.649 L 98.888 431.867 82.514 432.183 C 64.655 432.529, 63.399 432.906, 58.562 439.385 C 55.671 443.257, 55.671 452.743, 58.562 456.615 C 63.399 463.094, 64.655 463.471, 82.514 463.817 L 98.888 464.133 101.360 468.351 C 104.872 474.345, 113.098 481.689, 119.780 484.798 C 124.817 487.142, 126.755 487.462, 136 487.480 C 145.323 487.498, 147.141 487.200, 152.218 484.820 C 158.938 481.670, 167.140 474.324, 170.679 468.284 L 173.190 464 204 464 L 234.810 464 237.321 468.284 C 240.869 474.339, 249.071 481.676, 255.780 484.798 C 260.817 487.142, 262.755 487.462, 272 487.480 C 281.338 487.498, 283.136 487.202, 288.253 484.804 C 296.381 480.995, 304.377 473.089, 308.209 465.074 C 311.838 457.482, 313.027 446.494, 311.100 438.347 L 309.953 433.500 362.933 317 L 415.913 200.500 446.706 200 C 474.723 199.545, 477.785 199.328, 480.656 197.590 C 490.565 191.593, 490.176 175.839, 479.977 170.107 C 476.257 168.016, 475.433 167.983, 433.936 168.239 L 391.683 168.500 379.554 196 L 367.426 223.500 339.470 223.766 L 311.515 224.032 319.495 216.006 L 327.474 207.979 235.989 116.489 C 185.672 66.170, 144.277 25, 143.999 25 C 143.721 25, 116.722 51.775, 84.001 84.499" stroke="none" fill="black" fill-rule="evenodd"/>
</svg>